<svg width="20" height="20" viewBox="0 0 20 20" fill="none" xmlns="http://www.w3.org/2000/svg">
<path d="M16.6998 5.68471L11.8998 2.32637C10.5915 1.40971 8.58318 1.45971 7.32487 2.43471L3.14987 5.69304C2.31654 6.34304 1.6582 7.67637 1.6582 8.72633V14.4763C1.6582 16.6013 3.3832 18.3347 5.5082 18.3347H14.4915C16.6165 18.3347 18.3415 16.6097 18.3415 14.4847V8.83466C18.3415 7.70971 17.6165 6.32637 16.6998 5.68471ZM10.6248 15.0013C10.6248 15.343 10.3415 15.6263 9.99985 15.6263C9.65818 15.6263 9.37485 15.343 9.37485 15.0013V12.5013C9.37485 12.1597 9.65818 11.8763 9.99985 11.8763C10.3415 11.8763 10.6248 12.1597 10.6248 12.5013V15.0013Z" fill="#1B212D"/>
</svg>
