<svg width="20" height="20" viewBox="0 0 20 20" fill="none" xmlns="http://www.w3.org/2000/svg">
<path d="M14.167 2.02466H5.83366C3.33366 2.02466 1.66699 3.69132 1.66699 6.19133V11.1913C1.66699 13.6913 3.33366 15.358 5.83366 15.358V17.133C5.83366 17.7997 6.57533 18.1997 7.12533 17.8247L10.8337 15.358H14.167C16.667 15.358 18.3337 13.6913 18.3337 11.1913V6.19133C18.3337 3.69132 16.667 2.02466 14.167 2.02466ZM10.0003 12.1663C9.65033 12.1663 9.37533 11.883 9.37533 11.5413C9.37533 11.1997 9.65033 10.9163 10.0003 10.9163C10.3503 10.9163 10.6253 11.1997 10.6253 11.5413C10.6253 11.883 10.3503 12.1663 10.0003 12.1663ZM11.0503 8.708C10.7253 8.92467 10.6253 9.06633 10.6253 9.29967V9.47467C10.6253 9.81633 10.342 10.0997 10.0003 10.0997C9.65866 10.0997 9.37533 9.81633 9.37533 9.47467V9.29967C9.37533 8.33299 10.0837 7.85799 10.3503 7.67466C10.6587 7.46633 10.7587 7.32466 10.7587 7.10799C10.7587 6.69133 10.417 6.34966 10.0003 6.34966C9.58366 6.34966 9.24199 6.69133 9.24199 7.10799C9.24199 7.44966 8.95866 7.73299 8.61699 7.73299C8.27533 7.73299 7.99199 7.44966 7.99199 7.10799C7.99199 5.99966 8.89199 5.09966 10.0003 5.09966C11.1087 5.09966 12.0087 5.99966 12.0087 7.10799C12.0087 8.05799 11.3087 8.533 11.0503 8.708Z" fill="#929EAE"/>
</svg>
