<svg width="20" height="20" viewBox="0 0 20 20" fill="none" xmlns="http://www.w3.org/2000/svg">
<path d="M13.1503 1.66675H6.85033C3.70033 1.66675 2.91699 2.50841 2.91699 5.86675V15.2501C2.91699 17.4667 4.13366 17.9917 5.60866 16.4084L5.61699 16.4001C6.30033 15.6751 7.34199 15.7334 7.93366 16.5251L8.77533 17.6501C9.45033 18.5417 10.542 18.5417 11.217 17.6501L12.0587 16.5251C12.6587 15.7251 13.7003 15.6667 14.3837 16.4001C15.867 17.9834 17.0753 17.4584 17.0753 15.2417V5.86675C17.0837 2.50841 16.3003 1.66675 13.1503 1.66675ZM12.292 8.95842H7.70866C7.36699 8.95842 7.08366 8.67508 7.08366 8.33342C7.08366 7.99175 7.36699 7.70842 7.70866 7.70842H12.292C12.6337 7.70842 12.917 7.99175 12.917 8.33342C12.917 8.67508 12.6337 8.95842 12.292 8.95842Z" fill="#929EAE"/>
</svg>
