<svg width="30" height="30" viewBox="0 0 30 30" fill="none" xmlns="http://www.w3.org/2000/svg">
<path d="M0 8C0 3.58172 3.58172 0 8 0H22C26.4183 0 30 3.58172 30 8V22C30 26.4183 26.4183 30 22 30H8C3.58172 30 0 26.4183 0 22V8Z" fill="#1B212D"/>
<path d="M15.825 15.23C16.085 15.23 16.29 15.32 16.44 15.5C16.59 15.68 16.665 15.93 16.665 16.25C16.665 16.33 16.66 16.415 16.65 16.505C16.64 16.585 16.625 16.655 16.605 16.715C16.395 16.665 16.165 16.635 15.915 16.625C15.855 17.065 15.695 17.53 15.435 18.02C15.175 18.5 14.86 18.955 14.49 19.385C14.12 19.805 13.715 20.175 13.275 20.495C12.835 20.815 12.4 21.03 11.97 21.14C10.63 21.11 9.65 20.76 9.03 20.09C8.42 19.43 8.115 18.395 8.115 16.985C8.115 15.955 8.305 14.96 8.685 14C9.065 13.03 9.57 12.17 10.2 11.42C10.83 10.67 11.55 10.07 12.36 9.62C13.18 9.16 14.03 8.93 14.91 8.93C15.6 8.93 16.135 9.075 16.515 9.365C16.905 9.655 17.1 10.065 17.1 10.595C17.1 10.945 17.015 11.27 16.845 11.57C16.685 11.87 16.415 12.195 16.035 12.545C15.805 12.475 15.605 12.355 15.435 12.185C15.265 12.005 15.16 11.8 15.12 11.57C15.46 11.32 15.7 11.09 15.84 10.88C15.98 10.67 16.05 10.42 16.05 10.13C16.05 9.67 15.775 9.44 15.225 9.44C14.775 9.44 14.29 9.61 13.77 9.95C13.26 10.28 12.745 10.76 12.225 11.39C11.485 12.28 10.945 13.2 10.605 14.15C10.265 15.09 10.095 16.15 10.095 17.33C10.095 17.77 10.14 18.17 10.23 18.53C10.32 18.89 10.44 19.205 10.59 19.475C10.74 19.745 10.915 19.96 11.115 20.12C11.325 20.28 11.55 20.37 11.79 20.39C12.11 20.32 12.43 20.16 12.75 19.91C13.07 19.65 13.36 19.35 13.62 19.01C13.89 18.66 14.115 18.29 14.295 17.9C14.485 17.5 14.6 17.12 14.64 16.76C14.36 16.82 14.09 16.88 13.83 16.94C13.58 16.99 13.34 17.015 13.11 17.015C12.81 17.015 12.545 16.94 12.315 16.79C12.095 16.64 11.945 16.435 11.865 16.175C12.045 16.075 12.305 15.97 12.645 15.86C12.995 15.75 13.365 15.65 13.755 15.56C14.145 15.46 14.525 15.38 14.895 15.32C15.275 15.26 15.585 15.23 15.825 15.23ZM21.8759 19.91C21.7659 20.08 21.5909 20.215 21.3509 20.315C21.1209 20.425 20.9009 20.49 20.6909 20.51C20.5209 20.31 20.3309 20.04 20.1209 19.7C19.9109 19.35 19.7109 18.945 19.5209 18.485C19.0109 18.945 18.5009 19.365 17.9909 19.745C17.4809 20.115 17.0059 20.43 16.5659 20.69C16.4559 20.67 16.3659 20.61 16.2959 20.51C16.2259 20.41 16.1859 20.28 16.1759 20.12C16.3759 20.01 16.6109 19.865 16.8809 19.685C17.1609 19.505 17.4409 19.31 17.7209 19.1C18.0109 18.88 18.2859 18.655 18.5459 18.425C18.8159 18.185 19.0459 17.955 19.2359 17.735C19.0659 17.335 18.9059 16.925 18.7559 16.505C18.6159 16.075 18.4909 15.665 18.3809 15.275C18.2809 14.875 18.2009 14.515 18.1409 14.195C18.0809 13.865 18.0509 13.6 18.0509 13.4C18.0509 13.26 18.0659 13.17 18.0959 13.13C18.1359 13.08 18.2209 13.055 18.3509 13.055C18.4509 13.055 18.5709 13.065 18.7109 13.085C18.8609 13.105 19.0109 13.13 19.1609 13.16C19.3109 13.19 19.4609 13.225 19.6109 13.265C19.7609 13.295 19.8909 13.33 20.0009 13.37C19.9809 13.48 19.9709 13.575 19.9709 13.655C19.9709 13.735 19.9709 13.85 19.9709 14C19.9709 14.39 20.0009 14.79 20.0609 15.2C20.1309 15.6 20.2409 16.035 20.3909 16.505C20.8009 16.035 21.1809 15.515 21.5309 14.945C21.8809 14.365 22.2359 13.675 22.5959 12.875C22.8459 12.925 23.0609 13 23.2409 13.1C23.4209 13.19 23.5359 13.29 23.5859 13.4C23.4759 13.86 23.1659 14.44 22.6559 15.14C22.1459 15.84 21.4959 16.585 20.7059 17.375C20.8459 17.755 21.0159 18.16 21.2159 18.59C21.4159 19.01 21.6359 19.45 21.8759 19.91Z" fill="white"/>
</svg>
