<svg width="20" height="20" viewBox="0 0 20 20" fill="none" xmlns="http://www.w3.org/2000/svg">
<path d="M6.56491 10.0584C6.56491 9.71675 6.84824 9.43341 7.18991 9.43341H11.7566V2.38341C11.7483 1.98341 11.4316 1.66675 11.0316 1.66675C6.12324 1.66675 2.69824 5.09175 2.69824 10.0001C2.69824 14.9084 6.12324 18.3334 11.0316 18.3334C11.4233 18.3334 11.7483 18.0167 11.7483 17.6167V10.6751H7.18991C6.83991 10.6834 6.56491 10.4001 6.56491 10.0584Z" fill="#929EAE"/>
<path d="M17.1176 9.61683L14.751 7.2418C14.5093 7.00013 14.1093 7.00013 13.8676 7.2418C13.626 7.48346 13.626 7.88346 13.8676 8.12513L15.1676 9.42516H11.751V10.6752H15.1593L13.8593 11.9752C13.6176 12.2168 13.6176 12.6168 13.8593 12.8585C13.9843 12.9835 14.1426 13.0418 14.301 13.0418C14.4593 13.0418 14.6176 12.9835 14.7426 12.8585L17.1093 10.4835C17.3593 10.2502 17.3593 9.8585 17.1176 9.61683Z" fill="#929EAE"/>
</svg>
