<svg width="20" height="20" viewBox="0 0 20 20" fill="none" xmlns="http://www.w3.org/2000/svg">
<path d="M12.3747 3.29232V6.45898H11.1247V3.29232C11.1247 3.06732 10.9247 2.95898 10.7913 2.95898C10.7497 2.95898 10.708 2.96732 10.6663 2.98398L4.05801 5.47565C3.61634 5.64232 3.33301 6.05898 3.33301 6.53398V7.09232C2.57467 7.65898 2.08301 8.56733 2.08301 9.59233V6.53398C2.08301 5.54232 2.69134 4.65898 3.61634 4.30898L10.233 1.80898C10.4163 1.74232 10.608 1.70898 10.7913 1.70898C11.6247 1.70898 12.3747 2.38398 12.3747 3.29232ZM17.9169 12.0833V12.9167C17.9169 13.1417 17.7419 13.325 17.5086 13.3333H16.2919C15.8503 13.3333 15.4503 13.0083 15.4169 12.575C15.3919 12.3167 15.4919 12.075 15.6586 11.9083C15.8086 11.75 16.0169 11.6667 16.2419 11.6667H17.5003C17.7419 11.675 17.9169 11.8583 17.9169 12.0833Z" fill="#929EAE"/>
<path d="M16.233 10.7916H17.083C17.5413 10.7916 17.9163 10.4166 17.9163 9.95825V9.59159C17.9163 7.86659 16.508 6.45825 14.783 6.45825H5.21634C4.50801 6.45825 3.85801 6.69159 3.33301 7.09159C2.57467 7.65825 2.08301 8.56659 2.08301 9.59159V15.1999C2.08301 16.9249 3.49134 18.3333 5.21634 18.3333H14.783C16.508 18.3333 17.9163 16.9249 17.9163 15.1999V15.0416C17.9163 14.5833 17.5413 14.2083 17.083 14.2083H16.358C15.558 14.2083 14.7913 13.7166 14.583 12.9416C14.408 12.3083 14.6163 11.6999 15.033 11.2916C15.3413 10.9749 15.7663 10.7916 16.233 10.7916ZM11.6663 10.6249H5.83301C5.49134 10.6249 5.20801 10.3416 5.20801 9.99992C5.20801 9.65825 5.49134 9.37492 5.83301 9.37492H11.6663C12.008 9.37492 12.2913 9.65825 12.2913 9.99992C12.2913 10.3416 12.008 10.6249 11.6663 10.6249Z" fill="#929EAE"/>
</svg>
