<svg width="20" height="20" viewBox="0 0 20 20" fill="none" xmlns="http://www.w3.org/2000/svg">
<path d="M13.492 1.66675H6.50866C3.47533 1.66675 1.66699 3.47508 1.66699 6.50841V13.4834C1.66699 16.5251 3.47533 18.3334 6.50866 18.3334H13.4837C16.517 18.3334 18.3253 16.5251 18.3253 13.4917V6.50841C18.3337 3.47508 16.5253 1.66675 13.492 1.66675ZM14.3837 8.30008L12.4587 10.7834C12.217 11.0917 11.8753 11.2917 11.4837 11.3334C11.092 11.3834 10.7087 11.2751 10.4003 11.0334L8.87533 9.83342C8.81699 9.78342 8.75033 9.78342 8.71699 9.79175C8.68366 9.79175 8.62533 9.80842 8.57533 9.87508L6.59199 12.4501C6.46699 12.6084 6.28366 12.6917 6.10033 12.6917C5.96699 12.6917 5.83366 12.6501 5.71699 12.5584C5.44199 12.3501 5.39199 11.9584 5.60033 11.6834L7.58366 9.10842C7.82533 8.80008 8.16699 8.60008 8.55866 8.55008C8.94199 8.50008 9.33366 8.60841 9.64199 8.85008L11.167 10.0501C11.2253 10.1001 11.2837 10.1001 11.3253 10.0917C11.3587 10.0917 11.417 10.0751 11.467 10.0084L13.392 7.52508C13.6003 7.25008 14.0003 7.20008 14.267 7.41675C14.542 7.64175 14.592 8.03342 14.3837 8.30008Z" fill="#929EAE"/>
</svg>
