<svg width="18" height="20" viewBox="0 0 18 20" fill="none" xmlns="http://www.w3.org/2000/svg">
<path d="M17.1892 12.0608L16.0592 10.1808C15.8092 9.7708 15.5892 8.9808 15.5892 8.5008V6.63078C15.5892 3.00078 12.6392 0.0507812 9.0192 0.0507812C5.38923 0.0607812 2.43923 3.00078 2.43923 6.63078V8.4908C2.43923 8.9708 2.21923 9.7608 1.97923 10.1708L0.849226 12.0508C0.419226 12.7808 0.319226 13.6108 0.589226 14.3308C0.859226 15.0608 1.46923 15.6408 2.26923 15.9008C3.34923 16.2608 4.43923 16.5208 5.54923 16.7108C5.65923 16.7308 5.76923 16.7408 5.87923 16.7608C6.01923 16.7808 6.16923 16.8008 6.31923 16.8208C6.57923 16.8608 6.83923 16.8908 7.1092 16.9108C7.7392 16.9708 8.3792 17.0008 9.0192 17.0008C9.6492 17.0008 10.2792 16.9708 10.8992 16.9108C11.1292 16.8908 11.3592 16.8708 11.5792 16.8408C11.7592 16.8208 11.9392 16.8008 12.1192 16.7708C12.2292 16.7608 12.3392 16.7408 12.4492 16.7208C13.5692 16.5408 14.6792 16.2608 15.7592 15.9008C16.5292 15.6408 17.1192 15.0608 17.3992 14.3208C17.6792 13.5708 17.5992 12.7508 17.1892 12.0608ZM9.7492 8.0008C9.7492 8.4208 9.4092 8.7608 8.9892 8.7608C8.5692 8.7608 8.2292 8.4208 8.2292 8.0008V4.90078C8.2292 4.48078 8.5692 4.14078 8.9892 4.14078C9.4092 4.14078 9.7492 4.48078 9.7492 4.90078V8.0008ZM11.8297 18.01C11.4097 19.17 10.2997 20 8.9997 20C8.2097 20 7.4297 19.68 6.87969 19.11C6.55969 18.81 6.31969 18.41 6.17969 18C6.30969 18.02 6.43969 18.03 6.57969 18.05C6.80969 18.08 7.0497 18.11 7.2897 18.13C7.8597 18.18 8.4397 18.21 9.0197 18.21C9.5897 18.21 10.1597 18.18 10.7197 18.13C10.9297 18.11 11.1397 18.1 11.3397 18.07C11.4997 18.05 11.6597 18.03 11.8297 18.01Z" fill="#929EAE"/>
</svg>
